<svg xmlns="http://www.w3.org/2000/svg" viewBox="0 0 96 96">
  <defs><linearGradient id="g" x1="10" y1="8" x2="84" y2="88"><stop stop-color="#91bd59"/><stop offset="1" stop-color="#c58a35"/></linearGradient></defs>
  <path fill="url(#g)" d="M48 6c12 0 21 8 23 19 11 2 19 12 19 24 0 14-11 25-25 25h-2C59 84 50 91 39 91 24 91 12 79 12 64c0-8 4-16 10-21-1-3-2-6-2-10C20 18 32 6 48 6Z"/>
  <path fill="#07110b" d="M35 25h17c10 0 16 5 16 13 0 5-3 9-7 11 6 2 9 7 9 13 0 10-7 16-19 16H35V25Zm15 20c5 0 8-2 8-6s-3-6-8-6h-5v12h5Zm1 24c6 0 9-3 9-8s-3-8-9-8h-6v16h6Z"/>
</svg>
